<svg xmlns="http://www.w3.org/2000/svg" display="block" preserveAspectRatio="none" viewBox="-1 0 2048 2048">
  <style>
    .fill_1{fill:#e46a1e;}
    .fill_2{fill:#f3ac18;}
    .stroke_1{stroke:#000000;}
    @media (prefers-color-scheme: dark){
      .fill_1{fill:#cd530f;}
      .fill_2{fill:#724800;}
      .stroke_1{stroke:#ffffff;}
    }
  </style>
  <path id="part-2" d="M916.24 1921.41c-32.4-10.09-62.84-22.65-93.78-36.39-152.48-67.69-299.09-176.19-377.86-326.6-87.47-167.01-90.24-357.01-34.28-534.68 57.53-182.7 180.22-332.7 313.72-466.1C785.9 495.84 855.9 431.82 897.1 353.5c22.56-42.88 36.2-93.21 39.45-141.53.79-11.67.44-23.54.4-35.25-.03-12.59.26-25.3-1.01-37.83-.84-8.24-6.1-32.15-4.87-38.23.3-1.52 1.24-1.66 2.43-2.46 20.51-2.8 129.98 73.07 151.09 89.2 86.27 65.98 143.64 171.76 157.34 278.83a812 812 0 0 1-.23 204.75c-3.42 28.03-7.13 56.32-11.99 84.13-7.25 41.55-23.13 92.2-15.37 134.08 5.63 30.44 27.8 54.97 51.43 73.46 16.56 12.95 36.19 26.03 57.98 25.11.03-14.88-.77-30.31 1.63-45.01 11.31-69.2 46.85-150.44 85.83-208.54 7.88-11.75 16.31-24.13 26.39-34.06a76 76 0 0 1 5.11-4.59c38.73 61.97 80.14 124.77 113.31 189.83 84.49 165.69 123.16 353.21 80.94 536.79-4.76 20.67-11.95 40.79-19.01 60.77-52.17 147.68-151.26 252.15-282.54 334.16-22.95 14.33-46.21 29.09-70.09 41.8-55.15 29.36-185.79 86.63-245.65 91.4-.41.19-.78.45-1.21.57-16.47 4.57-85.06-21.21-102.22-29.47" class="fill_1 stroke_1"/>
  <path id="part-3" d="M814.96 1437.85c-.57-55.78-30.45-100.27-48.44-151.13-29.84-84.34-38.98-179.6-11.86-266.08 26.94-85.91 91.53-170.32 153.92-234.03 13.66-13.95 65.01-63.12 83.48-62.76 1.77.03 2.2.5 3.66 1.35-1.3 2.49-2.55 5-3.92 7.45-3.2 5.75-4.67 13.4-6.38 19.76-5.82 21.7-6.67 43.1-6.64 65.4.04 46.42 5.73 88.98 18.78 133.58 19.93 68.09 60.83 122.85 110.46 172.16 22.89 22.76 46.83 44.73 68.15 69 13.34 15.18 25.43 31.53 37.44 47.76 28.48 38.5 54.92 81.33 72.65 126 45.07 113.52 31.47 236.4-26.32 342.25-34.83 63.79-114.07 150.22-171.88 194.7-12.61 9.71-25.38 19.71-38.69 28.43-7.16 4.7-24.7 13.93-29.7 18.62-.41.19-.78.45-1.21.57-16.47 4.57-85.06-21.21-102.22-29.47q-.36-.65-.77-1.28c-3.78-5.49-20.92-10.89-27.5-14.15-22.15-10.99-43.37-25.64-64.21-38.97-39.69-25.39-74.63-56.44-107.3-90.23-22.15-22.9-44.23-46.67-62.64-72.74-11.35-16.07-21.13-34.02-30.1-51.49-32.05-62.36-47.02-119.01-46.12-189.03.16-12.21.03-24.75 1.3-36.89 5.66-54.16 20.38-109.43 40.34-160.09q.3.46.63.92c5.52 8.16 9.64 17.42 14.3 26.11a443 443 0 0 0 20.6 33.95c36 53.03 98.23 94.59 160.19 110.33" class="fill_2 stroke_1"/>
</svg>